<?xml version="1.0" standalone="no"?>
<!DOCTYPE svg PUBLIC "-//W3C//DTD SVG 20010904//EN"
 "http://www.w3.org/TR/2001/REC-SVG-20010904/DTD/svg10.dtd">
<svg version="1.0" xmlns="http://www.w3.org/2000/svg"
 width="24.000000pt" height="24.000000pt" viewBox="0 0 24.000000 24.000000"
 preserveAspectRatio="xMidYMid meet">

<g transform="translate(0.000000,24.000000) scale(0.100000,-0.100000)"
fill="#5B8C51 " stroke="none">
<path d="M90 209 l0 -31 -26 17 c-24 16 -26 16 -40 -2 -19 -25 -18 -28 14 -52
l27 -21 -27 -21 c-32 -24 -33 -27 -14 -52 14 -18 16 -18 40 -2 l26 17 0 -31
c0 -28 3 -31 30 -31 27 0 30 3 30 31 l0 31 26 -17 c24 -16 26 -16 40 2 19 25
18 28 -13 52 l-28 21 28 21 c31 24 32 27 13 52 -14 18 -16 18 -40 2 l-26 -17
0 31 c0 28 -3 31 -30 31 -27 0 -30 -3 -30 -31z"/>
</g>
</svg>
