<?xml version="1.0" standalone="no"?>
<!DOCTYPE svg PUBLIC "-//W3C//DTD SVG 20010904//EN"
 "http://www.w3.org/TR/2001/REC-SVG-20010904/DTD/svg10.dtd">
<svg version="1.0" xmlns="http://www.w3.org/2000/svg"
 width="512.000000pt" height="512.000000pt" viewBox="0 0 512.000000 512.000000"
 preserveAspectRatio="xMidYMid meet">

<g transform="translate(0.000000,512.000000) scale(0.100000,-0.100000)"
fill="#699560" stroke="none">
<path d="M653 4828 l-293 -293 -2 -530 -3 -530 -167 -3 -168 -2 0 -250 0 -250
168 -2 167 -3 3 -803 2 -802 -170 0 -170 0 0 -255 0 -255 167 -2 168 -3 3
-423 2 -422 590 0 590 0 0 425 0 425 215 0 215 0 0 -425 0 -425 590 0 590 0 0
425 0 425 215 0 215 0 0 -425 0 -425 590 0 590 0 2 422 3 423 168 3 167 2 0
255 0 255 -170 0 -170 0 2 802 3 803 168 3 167 2 0 250 0 250 -167 2 -168 3
-3 530 -2 530 -293 293 -292 292 -297 -297 -298 -298 -2 -525 -3 -525 -210 0
-210 0 -3 530 -2 530 -295 295 -295 295 -295 -295 -295 -295 -2 -530 -3 -530
-210 0 -210 0 -3 525 -2 525 -298 298 -297 297 -292 -292z m717 -2515 l0
-2143 -420 0 -420 0 0 2147 0 2148 207 207 208 208 212 -212 213 -213 0 -2142z
m1402 2360 l208 -208 0 -2147 0 -2148 -420 0 -420 0 0 2147 0 2148 207 207
c114 115 210 208 213 208 3 0 98 -93 212 -207z m1818 -2355 l0 -2148 -420 0
-420 0 0 2142 0 2143 212 212 213 213 207 -207 208 -208 0 -2147z m-4232 905
l3 -83 -86 0 -85 0 0 85 0 86 83 -3 82 -3 3 -82z m1610 0 l3 -83 -216 0 -215
0 0 78 c0 43 3 82 7 86 4 3 99 5 212 4 l206 -3 3 -82z m1610 0 l3 -83 -216 0
-215 0 0 78 c0 43 3 82 7 86 4 3 99 5 212 4 l206 -3 3 -82z m1352 2 l0 -85
-85 0 -85 0 0 78 c0 43 3 82 7 85 3 4 42 7 85 7 l78 0 0 -85z m-2962 -1062 l2
-803 -215 0 -215 0 0 798 c0 439 3 802 7 806 4 3 99 5 212 4 l206 -3 3 -802z
m1610 0 l2 -803 -215 0 -215 0 0 798 c0 439 3 802 7 806 4 3 99 5 212 4 l206
-3 3 -802z m-3220 -1060 l3 -83 -86 0 -85 0 0 85 0 86 83 -3 82 -3 3 -82z
m1610 0 l3 -83 -216 0 -215 0 0 78 c0 43 3 82 7 86 4 3 99 5 212 4 l206 -3 3
-82z m1610 0 l3 -83 -216 0 -215 0 0 78 c0 43 3 82 7 86 4 3 99 5 212 4 l206
-3 3 -82z m1352 2 l0 -85 -85 0 -85 0 0 78 c0 43 3 82 7 85 3 4 42 7 85 7 l78
0 0 -85z"/>
</g>
</svg>
