<?xml version="1.0" standalone="no"?>
<!DOCTYPE svg PUBLIC "-//W3C//DTD SVG 20010904//EN"
 "http://www.w3.org/TR/2001/REC-SVG-20010904/DTD/svg10.dtd">
<svg version="1.0" xmlns="http://www.w3.org/2000/svg"
 width="24.000000pt" height="24.000000pt" viewBox="0 0 24.000000 24.000000"
 preserveAspectRatio="xMidYMid meet">

<g transform="translate(0.000000,24.000000) scale(0.100000,-0.100000)"
fill="#404A3D" stroke="none">
<path d="M83 220 c-4 -14 -14 -20 -32 -20 -35 0 -55 -14 -48 -34 9 -23 36 -31
57 -18 14 9 21 8 30 -3 16 -19 44 -19 60 0 9 11 16 12 30 3 21 -13 48 -5 57
18 7 20 -13 34 -48 34 -18 0 -28 6 -32 20 -4 15 -14 20 -37 20 -23 0 -33 -5
-37 -20z m67 2 c0 -5 -13 -9 -30 -9 -16 0 -30 4 -30 9 0 4 14 8 30 8 17 0 30
-4 30 -8z m-8 -24 c7 -7 28 -13 47 -13 19 0 36 -5 38 -11 6 -17 -26 -25 -49
-13 -17 9 -23 8 -30 -5 -11 -20 -42 -21 -58 -1 -9 11 -17 12 -30 5 -22 -12
-52 -2 -47 14 2 6 19 11 38 11 19 0 40 6 47 13 7 6 17 12 22 12 5 0 15 -6 22
-12z"/>
<path d="M107 184 c-13 -13 -7 -24 14 -24 11 0 19 5 17 12 -5 14 -22 21 -31
12z"/>
<path d="M0 61 c0 -10 40 -46 41 -38 1 4 3 12 4 17 1 6 3 13 4 18 1 4 6 0 11
-8 9 -13 10 -13 10 1 0 10 -10 15 -35 16 -19 1 -35 -2 -35 -6z m30 -11 c0 -5
-2 -10 -4 -10 -3 0 -8 5 -11 10 -3 6 -1 10 4 10 6 0 11 -4 11 -10z"/>
<path d="M98 63 c6 -3 12 -9 12 -14 0 -6 -6 -7 -12 -3 -7 4 -5 -2 5 -12 17
-18 17 -18 35 0 9 10 11 16 5 12 -7 -4 -13 -3 -13 3 0 5 6 11 12 14 7 2 -3 4
-22 4 -19 0 -29 -2 -22 -4z"/>
<path d="M170 51 c0 -14 1 -14 10 -1 5 8 10 12 11 8 1 -5 3 -12 4 -18 1 -5 3
-13 4 -17 1 -8 41 28 41 38 0 4 -16 7 -35 6 -25 -1 -35 -6 -35 -16z m60 5 c0
-3 -4 -8 -10 -11 -5 -3 -10 -1 -10 4 0 6 5 11 10 11 6 0 10 -2 10 -4z"/>
<path d="M0 8 c0 -5 54 -8 120 -8 66 0 120 3 120 8 0 4 -54 7 -120 7 -66 0
-120 -3 -120 -7z"/>
</g>
</svg>
