<?xml version="1.0" standalone="no"?>
<!DOCTYPE svg PUBLIC "-//W3C//DTD SVG 20010904//EN"
 "http://www.w3.org/TR/2001/REC-SVG-20010904/DTD/svg10.dtd">
<svg version="1.0" xmlns="http://www.w3.org/2000/svg"
 width="512.000000pt" height="512.000000pt" viewBox="0 0 512.000000 512.000000"
 preserveAspectRatio="xMidYMid meet">

<g transform="translate(0.000000,512.000000) scale(0.100000,-0.100000)"
fill="#699560" stroke="none">
<path d="M135 4712 c-170 -79 -179 -309 -16 -394 50 -26 61 -28 176 -28 l122
0 34 -147 c37 -162 55 -193 108 -193 34 0 71 39 71 74 0 45 -88 378 -104 394
-14 14 -43 18 -174 20 -143 3 -159 5 -179 24 -30 28 -29 69 0 96 22 21 32 22
225 22 180 0 204 -2 220 -18 12 -12 97 -335 275 -1039 141 -562 257 -1024 257
-1026 0 -3 -17 -15 -37 -28 -21 -12 -50 -33 -64 -46 l-27 -25 -16 69 c-8 37
-76 322 -151 633 -74 311 -137 575 -140 588 -20 85 -149 81 -148 -6 0 -15 78
-351 174 -747 l173 -720 -3 -205 -3 -205 -68 -71 c-83 -88 -143 -186 -183
-302 -26 -75 -31 -105 -35 -217 -4 -110 -1 -144 17 -215 75 -306 331 -547 638
-600 99 -18 268 -8 358 20 206 65 369 197 477 388 l30 52 901 -2 900 -3 18
-52 c61 -180 199 -323 372 -383 86 -31 240 -38 327 -16 147 36 271 122 354
243 222 325 75 765 -298 895 -45 15 -96 28 -113 28 l-33 0 0 58 c0 150 -91
297 -219 355 -25 12 -206 58 -401 102 l-355 82 -3 71 -3 72 39 0 c52 0 135 43
172 90 88 111 76 270 -26 360 -47 41 34 8 -903 367 -707 271 -800 304 -852
304 -105 1 -191 -53 -235 -146 -22 -47 -24 -62 -24 -226 0 -173 1 -178 28
-229 31 -60 81 -105 138 -125 l39 -13 3 -86 3 -86 -336 0 c-184 0 -335 1 -335
3 0 1 -119 471 -264 1045 -178 705 -269 1052 -283 1070 -11 15 -39 41 -62 57
l-43 30 -236 3 c-213 2 -241 0 -277 -16z m2700 -1731 c418 -161 779 -301 802
-311 78 -34 97 -118 39 -176 -27 -27 -42 -34 -72 -34 -22 0 -262 54 -534 120
-272 66 -502 120 -511 120 -31 0 -69 -40 -69 -71 0 -62 10 -66 498 -184 l452
-109 0 -64 0 -65 -40 7 c-22 3 -156 33 -297 65 -142 33 -421 97 -620 142
l-363 83 0 73 c0 80 0 80 64 62 49 -14 90 2 106 41 14 35 6 66 -23 85 -12 7
-78 28 -147 45 -217 54 -210 45 -210 258 0 136 2 152 21 176 24 30 72 45 114
35 17 -3 372 -138 790 -298z m312 -866 c642 -147 1130 -263 1153 -275 75 -38
124 -133 118 -227 l-3 -45 -55 -17 c-97 -30 -181 -81 -255 -156 -96 -96 -146
-198 -170 -347 l-6 -38 -870 0 -870 0 8 38 c13 62 7 242 -10 314 -36 148 -99
261 -211 376 -212 219 -533 296 -816 198 -41 -14 -79 -27 -85 -28 -14 -4 -18
172 -6 252 11 68 44 127 92 162 60 45 84 47 488 48 l385 0 1113 -255z m-1557
-311 c167 -49 322 -180 397 -334 67 -139 85 -258 60 -397 -57 -311 -322 -532
-637 -533 -291 0 -552 203 -624 486 -20 78 -20 229 -1 313 55 230 253 422 492
475 83 19 233 14 313 -10z m3055 -396 c68 -17 137 -58 195 -117 216 -216 150
-577 -129 -710 -73 -35 -80 -36 -187 -36 -107 0 -112 1 -185 37 -180 89 -282
277 -251 463 44 268 292 429 557 363z"/>
<path d="M3403 1600 c-44 -18 -57 -86 -23 -120 19 -19 33 -20 199 -20 l180 0
20 26 c28 36 26 60 -8 95 l-29 29 -159 -1 c-87 0 -168 -4 -180 -9z"/>
<path d="M3403 1310 c-44 -18 -57 -86 -23 -120 19 -19 33 -20 199 -20 l180 0
20 26 c28 36 26 60 -8 95 l-29 29 -159 -1 c-87 0 -168 -4 -180 -9z"/>
<path d="M1303 1512 c-247 -89 -318 -389 -134 -573 70 -70 141 -99 241 -99
105 0 171 28 247 105 53 54 65 73 84 135 50 166 -24 339 -177 414 -76 38 -186
45 -261 18z m197 -154 c95 -48 135 -167 88 -257 -37 -71 -86 -104 -162 -109
-49 -3 -71 0 -104 17 -121 62 -144 225 -44 319 60 56 147 68 222 30z"/>
<path d="M4447 1206 c-124 -45 -192 -194 -141 -314 51 -123 207 -183 323 -123
222 114 144 450 -104 450 -22 0 -57 -6 -78 -13z m122 -151 c32 -16 41 -33 41
-79 0 -74 -98 -109 -146 -52 -35 40 -32 87 7 120 35 30 58 32 98 11z"/>
</g>
</svg>
