<?xml version="1.0" standalone="no"?>
<!DOCTYPE svg PUBLIC "-//W3C//DTD SVG 20010904//EN"
 "http://www.w3.org/TR/2001/REC-SVG-20010904/DTD/svg10.dtd">
<svg version="1.0" xmlns="http://www.w3.org/2000/svg"
 width="512.000000pt" height="512.000000pt" viewBox="0 0 512.000000 512.000000"
 preserveAspectRatio="xMidYMid meet">

<g transform="translate(0.000000,512.000000) scale(0.100000,-0.100000)"
fill="#699560" stroke="none">
<path d="M1393 4370 c-101 -45 -303 -321 -403 -550 -104 -237 -150 -462 -150
-728 1 -438 147 -837 429 -1166 l59 -69 -15 -61 c-18 -77 -53 -272 -53 -298 0
-11 13 -33 29 -49 56 -56 132 -26 146 57 52 316 126 555 249 804 319 642 879
1126 1556 1345 229 74 469 116 670 119 124 1 125 1 136 -24 21 -43 46 -305 51
-537 9 -367 -20 -655 -88 -858 -92 -275 -226 -498 -424 -704 -269 -279 -588
-454 -980 -538 -119 -25 -149 -27 -350 -27 -171 -1 -242 3 -319 18 -153 28
-151 22 -39 101 469 328 884 768 1179 1251 36 58 69 117 74 130 19 50 -30 114
-88 114 -32 0 -58 -29 -130 -145 -441 -715 -1110 -1292 -1871 -1616 -75 -32
-146 -68 -158 -80 -32 -30 -31 -82 3 -116 21 -21 32 -25 67 -21 54 7 301 116
482 213 l140 76 85 -25 c372 -107 760 -107 1130 -1 671 193 1202 729 1389
1405 83 297 96 914 30 1344 -17 108 -49 159 -124 199 -100 53 -558 0 -894
-103 -306 -94 -661 -279 -893 -466 -37 -30 -69 -54 -72 -54 -4 0 -6 13 -6 29
0 47 -29 185 -56 268 -101 312 -345 616 -600 749 -76 40 -127 43 -191 14z
m228 -248 c277 -221 435 -528 452 -882 l4 -84 -81 -86 c-92 -97 -192 -219
-245 -299 l-36 -54 -12 169 c-12 186 -32 333 -69 524 -36 184 -45 200 -117
200 -33 0 -67 -26 -79 -60 -3 -9 7 -81 23 -160 54 -274 72 -451 73 -725 l0
-250 -51 -115 c-28 -63 -61 -144 -74 -179 l-23 -64 -29 34 c-94 112 -203 310
-261 478 -67 191 -80 279 -81 521 0 235 8 291 67 485 60 198 202 451 331 588
l54 59 41 -21 c22 -11 73 -47 113 -79z"/>
</g>
</svg>
