<?xml version="1.0" standalone="no"?>
<!DOCTYPE svg PUBLIC "-//W3C//DTD SVG 20010904//EN"
 "http://www.w3.org/TR/2001/REC-SVG-20010904/DTD/svg10.dtd">
<svg version="1.0" xmlns="http://www.w3.org/2000/svg"
 width="24.000000pt" height="24.000000pt" viewBox="0 0 24.000000 24.000000"
 preserveAspectRatio="xMidYMid meet">

<g transform="translate(0.000000,24.000000) scale(0.100000,-0.100000)"
fill="#404A3D" stroke="none">
<path d="M13 120 c0 -36 2 -50 4 -32 2 17 2 47 0 65 -2 17 -4 3 -4 -33z"/>
<path d="M49 163 c-13 -16 -12 -17 4 -4 16 13 21 21 13 21 -2 0 -10 -8 -17
-17z"/>
<path d="M92 155 c-7 -8 -8 -15 -3 -15 5 0 12 -12 14 -27 4 -28 4 -28 6 3 0
16 6 35 13 42 9 9 9 12 -2 12 -8 -1 -21 -7 -28 -15z"/>
<path d="M190 146 c0 -18 -7 -26 -22 -29 -20 -4 -19 -4 5 -6 24 -1 27 3 27 29
0 17 -2 30 -5 30 -3 0 -5 -11 -5 -24z"/>
<path d="M40 86 c0 -2 8 -10 18 -17 15 -13 16 -12 3 4 -13 16 -21 21 -21 13z"/>
<path d="M170 81 c0 -10 28 -41 36 -41 2 0 -3 11 -12 25 -17 26 -24 31 -24 16z"/>
<path d="M78 13 c7 -3 16 -2 19 1 4 3 -2 6 -13 5 -11 0 -14 -3 -6 -6z"/>
<path d="M125 10 c3 -5 11 -10 16 -10 6 0 7 5 4 10 -3 6 -11 10 -16 10 -6 0
-7 -4 -4 -10z"/>
</g>
</svg>
