<?xml version="1.0" standalone="no"?>
<!DOCTYPE svg PUBLIC "-//W3C//DTD SVG 20010904//EN"
 "http://www.w3.org/TR/2001/REC-SVG-20010904/DTD/svg10.dtd">
<svg version="1.0" xmlns="http://www.w3.org/2000/svg"
 width="24.000000pt" height="24.000000pt" viewBox="0 0 24.000000 24.000000"
 preserveAspectRatio="xMidYMid meet">

<g transform="translate(0.000000,24.000000) scale(0.100000,-0.100000)"
fill="#404A3D" stroke="none">
<path d="M90 195 l0 -45 -45 0 c-43 0 -45 -1 -45 -30 0 -29 2 -30 45 -30 l45
0 0 -45 c0 -43 1 -45 30 -45 29 0 30 2 30 45 l0 45 45 0 c43 0 45 1 45 30 0
29 -2 30 -45 30 l-45 0 0 45 c0 43 -1 45 -30 45 -29 0 -30 -2 -30 -45z"/>
</g>
</svg>
